<svg width="80" height="80" viewBox="0 0 80 80" fill="none" xmlns="http://www.w3.org/2000/svg">
<mask id="mask0_214_27" style="mask-type:alpha" maskUnits="userSpaceOnUse" x="0" y="0" width="80" height="80">
<circle cx="40" cy="40" r="40" fill="#1A1B41"/>
</mask>
<g mask="url(#mask0_214_27)">
<circle cx="40" cy="40" r="40" fill="#1A1B41"/>
<circle cx="40" cy="40" r="37.5" stroke="#BAFF29" stroke-width="5"/>
</g>
<path d="M47.0835 39.8C48.9135 40.19 50.3835 41.105 51.4935 42.545C52.6035 43.955 53.1585 45.575 53.1585 47.405C53.1585 50.045 52.2285 52.145 50.3685 53.705C48.5385 55.235 45.9735 56 42.6735 56H27.9585V24.41H42.1785C45.3885 24.41 47.8935 25.145 49.6935 26.615C51.5235 28.085 52.4385 30.08 52.4385 32.6C52.4385 34.46 51.9435 36.005 50.9535 37.235C49.9935 38.465 48.7035 39.32 47.0835 39.8ZM35.6535 37.19H40.6935C41.9535 37.19 42.9135 36.92 43.5735 36.38C44.2635 35.81 44.6085 34.985 44.6085 33.905C44.6085 32.825 44.2635 32 43.5735 31.43C42.9135 30.86 41.9535 30.575 40.6935 30.575H35.6535V37.19ZM41.3235 49.79C42.6135 49.79 43.6035 49.505 44.2935 48.935C45.0135 48.335 45.3735 47.48 45.3735 46.37C45.3735 45.26 44.9985 44.39 44.2485 43.76C43.5285 43.13 42.5235 42.815 41.2335 42.815H35.6535V49.79H41.3235Z" fill="white"/>
</svg>
